<svg viewBox="7.922 7.204 122.5428 20" xmlns="http://www.w3.org/2000/svg">
  <path fill-rule="evenodd" clip-rule="evenodd" d="M 10.193 7.316 C 9.383 7.422 8.955 7.617 8.649 7.917 C 8.344 8.216 8.145 8.636 8.036 9.429 C 7.924 10.246 7.922 11.328 7.922 12.88 L 7.922 21.448 C 8.311 21.182 8.749 20.98 9.221 20.856 C 9.749 20.717 10.365 20.717 11.268 20.718 L 23.922 20.718 L 23.922 12.88 C 23.922 11.328 23.92 10.246 23.808 9.429 C 23.699 8.636 23.5 8.216 23.195 7.917 C 22.89 7.617 22.461 7.422 21.651 7.316 C 20.818 7.206 19.713 7.204 18.129 7.204 L 13.715 7.204 C 12.131 7.204 11.027 7.206 10.193 7.316 Z M 10.681 11.799 C 10.681 11.351 11.051 10.988 11.508 10.988 L 20.336 10.988 C 20.793 10.988 21.164 11.351 21.164 11.799 C 21.164 12.247 20.793 12.61 20.336 12.61 L 11.508 12.61 C 11.051 12.61 10.681 12.247 10.681 11.799 Z M 11.508 14.772 C 11.051 14.772 10.681 15.135 10.681 15.583 C 10.681 16.03 11.051 16.393 11.508 16.393 L 17.026 16.393 C 17.483 16.393 17.853 16.03 17.853 15.583 C 17.853 15.135 17.483 14.772 17.026 14.772 L 11.508 14.772 Z" style=""/>
  <path d="M 12.612 22.339 L 11.396 22.339 C 10.316 22.339 9.939 22.346 9.65 22.422 C 8.856 22.631 8.223 23.209 7.952 23.96 C 7.968 24.342 7.995 24.679 8.036 24.979 C 8.145 25.772 8.344 26.193 8.649 26.492 C 8.955 26.791 9.383 26.986 10.193 27.093 C 11.027 27.202 12.131 27.204 13.715 27.204 L 18.129 27.204 C 19.713 27.204 20.818 27.202 21.651 27.093 C 22.461 26.986 22.89 26.791 23.195 26.492 C 23.5 26.193 23.699 25.772 23.808 24.979 C 23.9 24.313 23.918 23.47 23.921 22.339 L 17.026 22.339 L 17.026 25.346 C 17.026 25.644 17.026 25.793 16.921 25.853 C 16.816 25.913 16.673 25.847 16.387 25.713 L 15.016 25.075 C 14.919 25.03 14.871 25.008 14.819 25.008 C 14.767 25.008 14.718 25.03 14.621 25.075 L 13.251 25.713 C 12.964 25.847 12.821 25.913 12.716 25.853 C 12.612 25.793 12.612 25.644 12.612 25.346 L 12.612 22.339 Z" style=""/>
  <text style="font-size: 15.9px; white-space: pre;" x="28.858" y="22.467">shtemaran.am</text>
</svg>